<svg width="171" height="171" viewBox="0 0 171 171" fill="none" xmlns="http://www.w3.org/2000/svg">
<g clip-path="url(#clip0_305_13)">
<rect width="171" height="171" rx="85.5" fill="white"/>
<circle cx="85.5" cy="85.5" r="84" fill="#ADFF2F" stroke="black" stroke-width="3"/>
<path fill-rule="evenodd" clip-rule="evenodd" d="M55.417 73.3216C55.8385 79.262 57.9009 84.9687 61.3746 89.806C62.507 91.2412 63.8654 92.4824 65.3967 93.481C66.9596 94.3733 68.6616 94.9958 70.4314 95.3226C76.1024 96.0776 81.8692 95.0982 86.973 92.5133C86.5557 86.5676 84.4945 80.8549 81.0195 76.0125C79.8871 74.5774 78.5286 73.3361 76.9974 72.3375C75.4337 71.4495 73.7317 70.8311 71.9627 70.5082C66.2899 69.7536 60.5215 70.7344 55.417 73.3216Z" stroke="black" stroke-width="3" stroke-linecap="round" stroke-linejoin="round"/>
<path d="M88.4775 62.9094C88.4775 62.081 87.806 61.4094 86.9775 61.4094C86.1491 61.4094 85.4775 62.081 85.4775 62.9094H88.4775ZM85.4775 79.5694C85.4775 80.3978 86.1491 81.0694 86.9775 81.0694C87.806 81.0694 88.4775 80.3978 88.4775 79.5694H85.4775ZM85.4775 124.723C85.4775 125.551 86.1491 126.223 86.9775 126.223C87.806 126.223 88.4775 125.551 88.4775 124.723H85.4775ZM88.4775 79.5694C88.4775 78.741 87.806 78.0694 86.9775 78.0694C86.1491 78.0694 85.4775 78.741 85.4775 79.5694H88.4775ZM87.1647 85.0514C86.3428 84.948 85.5926 85.5305 85.4893 86.3525C85.3859 87.1744 85.9684 87.9246 86.7903 88.0279L87.1647 85.0514ZM102.621 83.8896L103.288 85.2332C103.304 85.2252 103.32 85.217 103.335 85.2085L102.621 83.8896ZM106.9 80.6801L107.966 81.7352C107.984 81.7169 108.002 81.6982 108.019 81.679L106.9 80.6801ZM109.926 76.1312L111.28 76.7772C111.287 76.7627 111.293 76.7481 111.3 76.7334L109.926 76.1312ZM112.437 59.5447L113.928 59.3762C113.85 58.6877 113.31 58.1421 112.623 58.0563L112.437 59.5447ZM96.7939 62.2112L96.1255 60.8683C96.11 60.876 96.0946 60.884 96.0794 60.8922L96.7939 62.2112ZM92.5145 65.4207L91.4484 64.3655C91.4306 64.3835 91.4133 64.4019 91.3965 64.4207L92.5145 65.4207ZM89.4888 69.9572L88.136 69.3092C88.1336 69.3142 88.1312 69.3192 88.1289 69.3242L89.4888 69.9572ZM85.4858 79.4576C85.424 80.2837 86.0437 81.0035 86.8698 81.0652C87.6959 81.127 88.4157 80.5073 88.4775 79.6812L85.4858 79.4576ZM85.4775 62.9094V79.5694H88.4775V62.9094H85.4775ZM88.4775 124.723V79.5694H85.4775V124.723H88.4775ZM86.7903 88.0279C92.4447 88.7391 98.1831 87.767 103.288 85.2332L101.954 82.546C97.3778 84.8174 92.2336 85.6889 87.1647 85.0514L86.7903 88.0279ZM103.335 85.2085C105.041 84.2845 106.602 83.1141 107.966 81.7352L105.834 79.6249C104.677 80.7944 103.353 81.7869 101.906 82.5706L103.335 85.2085ZM108.019 81.679C109.333 80.2076 110.43 78.5572 111.28 76.7772L108.572 75.4853C107.845 77.009 106.905 78.4217 105.781 79.6812L108.019 81.679ZM111.3 76.7334C113.69 71.2804 114.596 65.2925 113.928 59.3762L110.947 59.7133C111.556 65.1041 110.73 70.5602 108.552 75.5291L111.3 76.7334ZM112.623 58.0563C106.967 57.3504 101.228 58.3286 96.1255 60.8683L97.4622 63.554C102.037 61.2773 107.181 60.4004 112.251 61.0332L112.623 58.0563ZM96.0794 60.8922C94.3736 61.8163 92.8131 62.9866 91.4484 64.3655L93.5807 66.4758C94.7381 65.3064 96.0615 64.3138 97.5083 63.5301L96.0794 60.8922ZM91.3965 64.4207C90.0842 65.888 88.9864 67.5339 88.136 69.3092L90.8416 70.6053C91.5696 69.0855 92.5092 67.6766 93.6326 66.4206L91.3965 64.4207ZM88.1289 69.3242C86.6436 72.5148 85.7481 75.948 85.4858 79.4576L88.4775 79.6812C88.7128 76.5326 89.5161 73.4527 90.8487 70.5903L88.1289 69.3242Z" fill="black"/>
</g>
<defs>
<clipPath id="clip0_305_13">
<rect width="171" height="171" rx="85.5" fill="white"/>
</clipPath>
</defs>
</svg>
